<?xml version="1.0" encoding="UTF-8"?>
<svg version="1.1" xmlns="http://www.w3.org/2000/svg" width="512" height="488">
<path d="M0 0 C7.86042275 6.58081904 11.55578803 14.97708013 13 25 C12.85636017 29.38205055 12.08245844 33.52685327 11.1875 37.8125 C10.95393799 39.01680664 10.72037598 40.22111328 10.47973633 41.46191406 C8.01331286 53.75209351 4.84273694 65.86465432 1.60401917 77.96961975 C-0.27016468 84.98242464 -2.07555458 92.01204786 -3.85018921 99.05065918 C-4.35695763 101.05368663 -4.87124687 103.05467308 -5.38598633 105.05566406 C-9.67253689 121.3691445 -9.67253689 121.3691445 -9 138 C-6.85966091 139.26992844 -6.85966091 139.26992844 -3.5625 138.875 C0 139 0 139 1.8125 140 C3.68414056 143.15223674 4.23758538 146.422516 5 150 C-5.552398 157.81659111 -16.81606482 162.04083699 -30 161 C-32.93451575 160.28366198 -35.22533712 159.29165341 -38 158 C-38.886875 157.649375 -39.77375 157.29875 -40.6875 156.9375 C-45.58831379 152.83141277 -47.5755585 147.80004694 -48.5234375 141.546875 C-49.40063843 120.57759568 -41.87235066 99.32790456 -36.7835083 79.15527344 C-29.85230741 54.42952977 -29.85230741 54.42952977 -29 29 C-30.62721686 25.95131494 -30.62721686 25.95131494 -32.83984375 25.25 C-41.27874997 24.27334539 -49.5594126 30.27067978 -56 35 C-57.83805768 36.59054881 -59.38809759 38.17317726 -61 40 C-61.33 40.33 -61.66 40.66 -62 41 C-62.18115317 42.73903262 -62.3005085 44.4845562 -62.39453125 46.23046875 C-64.68842883 84.49659686 -72.39630728 128.09716345 -101 156 C-101.60457031 156.62519531 -102.20914063 157.25039063 -102.83203125 157.89453125 C-109.10404677 163.92238072 -117.48080701 167.23987246 -126.125 167.5625 C-134.56640684 167.16473737 -142.17166999 164.23495768 -148 158 C-153.77831751 149.4049539 -155.86777718 139.3569829 -154.4375 129.125 C-147.99051211 98.26866175 -127.09931768 70.82638711 -104 50 C-103.34 49.67 -102.68 49.34 -102 49 C-101.71719231 39.85588461 -102.7733269 31.82645194 -105 23 C-116.42079432 21.83987417 -126.20969116 26.17300073 -135.29296875 32.86328125 C-137 34 -137 34 -139 34 C-139.33 34.99 -139.66 35.98 -140 37 C-144.21708244 35.49389913 -145.94467452 32.88228147 -148 29 C-147.82888091 25.77466451 -147.26016193 24.30963716 -145.171875 21.82421875 C-129.92488273 8.37243686 -111.66633274 -1.79538284 -91 -2 C-83.27754269 -1.09737512 -77.06933866 2.15076309 -72 8 C-68.69613752 12.50442095 -66.42764925 16.29800997 -66 22 C-60.94593663 18.7454895 -56.11166921 15.3283308 -51.375 11.625 C-37.73608805 1.32622975 -16.3226229 -11.63177567 0 0 Z M-103 72 C-104.16333514 73.38953919 -105.32461382 74.78125178 -106.453125 76.19921875 C-108 78 -108 78 -110.33984375 80.21484375 C-113.49769423 83.52108074 -115.86917836 87.02614679 -118.3125 90.875 C-118.78888916 91.62386475 -119.26527832 92.37272949 -119.75610352 93.14428711 C-121.18745162 95.41969583 -122.59917715 97.70568749 -124 100 C-124.60376465 100.9887915 -124.60376465 100.9887915 -125.21972656 101.99755859 C-131.35677679 112.24097849 -136.85084835 124.06171891 -135.9375 136.3125 C-135.02921497 139.88508777 -134.75621848 140.84151564 -132 143 C-128.27218989 143 -126.45041824 142.34907413 -123.5 140.0625 C-109.41031397 122.80263462 -101.5151504 94.18186935 -102 72 C-102.33 72 -102.66 72 -103 72 Z " fill="#908080" transform="translate(320,153)"/>
<path d="M0 0 C8.32098742 5.92967562 11.8789487 13.74415616 14.38671875 23.359375 C14.71138634 26.58381341 14.10356751 28.32277693 12.671875 31.19140625 C10.56411335 28.02976377 10.45538134 27.44539949 10.609375 23.87890625 C10.68765023 20.18792793 10.57405479 16.80012543 9.671875 13.19140625 C9.011875 12.86140625 8.351875 12.53140625 7.671875 12.19140625 C6.32267968 10.53755392 4.99053772 8.86970425 3.671875 7.19140625 C3.115 6.63453125 2.558125 6.07765625 1.984375 5.50390625 C0.671875 4.19140625 0.671875 4.19140625 -0.328125 2.19140625 C-8.70782415 -1.08760646 -17.24824163 -0.61965586 -25.6484375 2.33984375 C-27.52015878 3.07919208 -27.52015878 3.07919208 -28.328125 5.19140625 C-31.298125 4.69640625 -31.298125 4.69640625 -34.328125 4.19140625 C-25.23011979 -3.297282 -10.44263113 -6.19222135 0 0 Z " fill="#7F7575" transform="translate(318.328125,151.80859375)"/>
<path d="M0 0 C0.66 0.33 1.32 0.66 2 1 C1.59365234 2.82856446 1.18723367 4.65711316 0.78051758 6.4855957 C0.42241563 8.09845523 0.06551037 9.71158085 -0.2902832 11.32495117 C-1.20659399 15.47223081 -2.1391913 19.61381298 -3.12109375 23.74609375 C-7.33460129 38.88111707 -7.33460129 38.88111707 -6 54 C-3.04335481 55.4783226 -0.25770263 55.06032783 3 55 C3 55.66 3 56.32 3 57 C-1.94080338 59.28964059 -1.94080338 59.28964059 -4.95703125 58.46484375 C-6.67095437 57.71434788 -8.33998524 56.86320768 -10 56 C-9.01 55.505 -9.01 55.505 -8 55 C-8 54.34 -8 53.68 -8 53 C-8.66 52.67 -9.32 52.34 -10 52 C-9.9278125 51.2265625 -9.855625 50.453125 -9.78125 49.65625 C-9.25435007 43.74326187 -8.88585174 37.93570969 -9 32 C-8.34 31.67 -7.68 31.34 -7 31 C-6.37811504 28.44699858 -5.87301764 25.96045393 -5.4375 23.375 C-5.24897461 22.32505859 -5.24897461 22.32505859 -5.05664062 21.25390625 C-4.46680109 17.92486426 -3.94837586 14.60708293 -3.5078125 11.25390625 C-2.86891357 7.16003847 -1.54609307 3.83162196 0 0 Z " fill="#807575" transform="translate(317,237)"/>
<path d="M0 0 C0.27585938 0.57878906 0.55171875 1.15757812 0.8359375 1.75390625 C4.3881619 8.60803051 8.89402682 13.78771075 16 17 C25.16676331 19.37656826 34.2553941 16.95828157 43 14 C42 17 42 17 40.13671875 18.16796875 C31.55864788 21.73874466 23.46453051 22.56427924 14.625 19.3125 C7.07612704 15.82190114 3.39602066 11.57231126 -0.21484375 4.20703125 C-0.47394531 3.47871094 -0.73304688 2.75039063 -1 2 C-0.67 1.34 -0.34 0.68 0 0 Z " fill="#786C6B" transform="translate(168,299)"/>
<path d="M0 0 C2.03367872 1.50642868 2.75646676 2.92241689 3.6875 5.25 C3.0275 5.58 2.3675 5.91 1.6875 6.25 C1.1925 4.27 1.1925 4.27 0.6875 2.25 C-10.73329432 1.08987417 -20.52219116 5.42300073 -29.60546875 12.11328125 C-31.3125 13.25 -31.3125 13.25 -33.3125 13.25 C-33.6425 14.24 -33.9725 15.23 -34.3125 16.25 C-35.6325 15.59 -36.9525 14.93 -38.3125 14.25 C-36.9925 13.92 -35.6725 13.59 -34.3125 13.25 C-34.3125 12.59 -34.3125 11.93 -34.3125 11.25 C-25.48544475 4.43672161 -11.57833149 -3.75513454 0 0 Z " fill="#7B7270" transform="translate(214.3125,173.75)"/>
<path d="M0 0 C-0.33 0.99 -0.66 1.98 -1 3 C-1 2.34 -1 1.68 -1 1 C-1.7425 0.855625 -2.485 0.71125 -3.25 0.5625 C-4.8090899 0.24359525 -6.36479499 -0.10080294 -7.89868164 -0.5246582 C-11.69808126 -1.38412504 -15.55817351 -1.18455889 -19.4375 -1.1875 C-20.28376953 -1.19974609 -21.13003906 -1.21199219 -22.00195312 -1.22460938 C-26.51071282 -1.23520161 -29.86774489 -0.98318083 -34 1 C-36.32597511 1.3813074 -38.65912158 1.72460254 -41 2 C-29.76600735 -7.20313356 -12.08248252 -6.93623997 0 0 Z " fill="#746868" transform="translate(243,156)"/>
<path d="M0 0 C0.66 0.33 1.32 0.66 2 1 C1.01 2.485 1.01 2.485 0 4 C-0.66 4 -1.32 4 -2 4 C-2.33 5.65 -2.66 7.3 -3 9 C-3.66 9 -4.32 9 -5 9 C-5 9.66 -5 10.32 -5 11 C-5.61875 11.061875 -6.2375 11.12375 -6.875 11.1875 C-9.27761141 11.828919 -9.27761141 11.828919 -10.25 14.5625 C-10.4975 15.366875 -10.745 16.17125 -11 17 C-11.66 17 -12.32 17 -13 17 C-12.67 17.99 -12.34 18.98 -12 20 C-13.98 21.32 -15.96 22.64 -18 24 C-18.66 23.67 -19.32 23.34 -20 23 C-13.46525211 15.20716046 -6.86326299 7.50722347 0 0 Z " fill="#837778" transform="translate(210,209)"/>
<path d="M0 0 C0.99 0.33 1.98 0.66 3 1 C2.67 1.33 2.34 1.66 2 2 C1.78310527 3.93774356 1.62837042 5.88251083 1.5 7.828125 C1.4175 9.02050781 1.335 10.21289062 1.25 11.44140625 C1.1675 12.69824219 1.085 13.95507812 1 15.25 C0.83626247 17.71373808 0.66970226 20.17729058 0.5 22.640625 C0.4278125 23.73922852 0.355625 24.83783203 0.28125 25.96972656 C0.0267297 28.71200605 -0.40127645 31.31447542 -1 34 C-1.66 33.34 -2.32 32.68 -3 32 C-2.67 31.34 -2.34 30.68 -2 30 C-2.66 29.67 -3.32 29.34 -4 29 C-3.34 29 -2.68 29 -2 29 C-1.97494385 28.15703369 -1.9498877 27.31406738 -1.92407227 26.44555664 C-1.82911845 23.32758326 -1.72987552 20.20978497 -1.62768555 17.09204102 C-1.58428777 15.74085853 -1.5426163 14.38961947 -1.50268555 13.03833008 C-1.44510048 11.09963299 -1.38085702 9.16113724 -1.31640625 7.22265625 C-1.27974854 6.05484619 -1.24309082 4.88703613 -1.20532227 3.68383789 C-1 1 -1 1 0 0 Z " fill="#807574" transform="translate(256,192)"/>
<path d="M0 0 C-10.35755837 5.48950594 -18.19830065 8.43530858 -30 8 C-30 7.34 -30 6.68 -30 6 C-29.05362671 5.87939209 -29.05362671 5.87939209 -28.08813477 5.75634766 C-25.24494428 5.38865528 -22.4037988 5.00702337 -19.5625 4.625 C-18.56927734 4.49867188 -17.57605469 4.37234375 -16.55273438 4.2421875 C-15.60849609 4.11328125 -14.66425781 3.984375 -13.69140625 3.8515625 C-12.37958374 3.67874756 -12.37958374 3.67874756 -11.04125977 3.50244141 C-10.36764404 3.33663574 -9.69402832 3.17083008 -9 3 C-8.67 2.34 -8.34 1.68 -8 1 C-3.6 -1.2 -3.6 -1.2 0 0 Z " fill="#7B706F" transform="translate(321,306)"/>
<path d="M0 0 C0.33 1.32 0.66 2.64 1 4 C0.21625 3.608125 -0.5675 3.21625 -1.375 2.8125 C-7.38342612 1.4657838 -12.36980975 3.42348232 -17.57421875 6.54296875 C-19.13119276 7.59850186 -20.67104907 8.68000209 -22.1875 9.79296875 C-24 11 -24 11 -26 11 C-24.52440331 6.57320993 -22.09942632 6.08567304 -18 4 C-17.34 4 -16.68 4 -16 4 C-16 3.34 -16 2.68 -16 2 C-10.60539047 -0.27141454 -5.73842251 -0.20413361 0 0 Z " fill="#7A7170" transform="translate(290,176)"/>
<path d="M0 0 C0.66 0.33 1.32 0.66 2 1 C1.56131592 1.77863403 1.56131592 1.77863403 1.11376953 2.57299805 C-0.2189908 4.94273156 -1.54702966 7.31507917 -2.875 9.6875 C-3.33519531 10.50412109 -3.79539063 11.32074219 -4.26953125 12.16210938 C-6.43297538 16.03436082 -8.51333589 19.80487311 -10 24 C-10.66 23.34 -11.32 22.68 -12 22 C-11.525625 20.948125 -11.05125 19.89625 -10.5625 18.8125 C-9.30676259 15.89824149 -8.47765619 13.15253086 -8 10 C-7.01 9.67 -6.02 9.34 -5 9 C-5.103125 8.2575 -5.20625 7.515 -5.3125 6.75 C-5 4 -5 4 -2.5 1.6875 C-1.675 1.130625 -0.85 0.57375 0 0 Z " fill="#827776" transform="translate(198,247)"/>
<path d="M0 0 C0.66 0.33 1.32 0.66 2 1 C1.34 2.32 0.68 3.64 0 5 C-0.66 5 -1.32 5 -2 5 C-2.268125 6.258125 -2.53625 7.51625 -2.8125 8.8125 C-3.59888463 11.96361572 -4.1803531 14.1202354 -7 16 C-7.66 16 -8.32 16 -9 16 C-9 16.66 -9 17.32 -9 18 C-9.66 18 -10.32 18 -11 18 C-11.12375 18.639375 -11.2475 19.27875 -11.375 19.9375 C-11.58125 20.618125 -11.7875 21.29875 -12 22 C-12.66 22.33 -13.32 22.66 -14 23 C-12.53008573 17.41080502 -9.73559838 13.32848607 -6.4375 8.6875 C-5.93025391 7.95982422 -5.42300781 7.23214844 -4.90039062 6.48242188 C-1.21062209 1.21062209 -1.21062209 1.21062209 0 0 Z " fill="#847372" transform="translate(189,234)"/>
<path d="M0 0 C0.66 0 1.32 0 2 0 C0.00226249 8.4285497 -3.72885046 15.53426465 -8 23 C-8.99 23 -9.98 23 -11 23 C-11 22.34 -11 21.68 -11 21 C-10.01 20.34 -9.02 19.68 -8 19 C-7.7834375 18.13375 -7.7834375 18.13375 -7.5625 17.25 C-7 15 -7 15 -5.125 12.3125 C-2.59543652 8.36935693 -1.31029383 4.46691079 0 0 Z " fill="#7F7374" transform="translate(241,269)"/>
<path d="M0 0 C0.99 0 1.98 0 3 0 C3.10832169 2.08218362 3.18573541 4.16599129 3.25 6.25 C3.29640625 7.41015625 3.3428125 8.5703125 3.390625 9.765625 C2.92401951 13.62911848 1.99176642 14.62418549 -1 17 C-2.31558703 18.02323436 -3.64377755 19.03126968 -5 20 C-4.75 18.1875 -4.75 18.1875 -4 16 C-3.3296875 15.5978125 -2.659375 15.195625 -1.96875 14.78125 C0.33597665 13.08564833 0.33597665 13.08564833 0.390625 9.86328125 C0.34421875 8.69152344 0.2978125 7.51976562 0.25 6.3125 C0.21390625 5.13300781 0.1778125 3.95351562 0.140625 2.73828125 C0.09421875 1.83464844 0.0478125 0.93101562 0 0 Z " fill="#837877" transform="translate(218,189)"/>
<path d="M0 0 C0.99 0.66 1.98 1.32 3 2 C-1.50830832 8.08621623 -6.18463353 14.09370231 -12 19 C-12.66 19 -13.32 19 -14 19 C-14 18.34 -14 17.68 -14 17 C-12.6796875 15.7734375 -12.6796875 15.7734375 -10.875 14.375 C-6.14761115 10.46433483 -1.9611807 5.88354209 0 0 Z " fill="#7E7373" transform="translate(228,293)"/>
<path d="M0 0 C0.66 0.33 1.32 0.66 2 1 C1.34 1.66 0.68 2.32 0 3 C-0.99 3 -1.98 3 -3 3 C-3 3.66 -3 4.32 -3 5 C-4.65 5.33 -6.3 5.66 -8 6 C-5.54080489 3.3651481 -3.42227589 1.25483449 0 0 Z M-8 6 C-9 9 -9 9 -12.0625 10.6875 C-13.031875 11.120625 -14.00125 11.55375 -15 12 C-13.52522876 8.59668175 -12.14385429 6 -8 6 Z " fill="#847675" transform="translate(282,156)"/>
<path d="M0 0 C0 0.99 0 1.98 0 3 C-3.70821628 5.35108558 -7.48605238 5.43155058 -11.75 5.625 C-12.44738281 5.66367187 -13.14476562 5.70234375 -13.86328125 5.7421875 C-15.57510818 5.83598624 -17.28751682 5.91906174 -19 6 C-19 5.34 -19 4.68 -19 4 C-18.07380859 3.94392578 -18.07380859 3.94392578 -17.12890625 3.88671875 C-11.0232776 3.41276584 -5.71266953 2.19399627 0 0 Z " fill="#807372" transform="translate(210,313)"/>
<path d="M0 0 C0.66 0 1.32 0 2 0 C3.47265625 1.79296875 3.47265625 1.79296875 5.0625 4.1875 C5.58972656 4.96480469 6.11695313 5.74210938 6.66015625 6.54296875 C8.03809267 9.06985506 8.59232823 11.16642955 9 14 C8.34 14 7.68 14 7 14 C4.66666667 9.33333333 2.33333333 4.66666667 0 0 Z " fill="#726968" transform="translate(244,158)"/>
<path d="M0 0 C1.26977059 3.80931176 0.52074507 5.81618993 -0.4375 9.6875 C-0.86869141 11.45673828 -0.86869141 11.45673828 -1.30859375 13.26171875 C-1.53675781 14.16535156 -1.76492187 15.06898438 -2 16 C-2.66 15.67 -3.32 15.34 -4 15 C-3.50341703 9.33895411 -2.45489316 5.12325529 0 0 Z " fill="#7D7472" transform="translate(253,231)"/>
<path d="M0 0 C0 0.99 0 1.98 0 3 C-4.67209049 4.43023178 -9.13103697 5.40380045 -14 6 C-11.03653214 3.52813545 -8.45958311 2.33751639 -4.75 1.3125 C-3.41195312 0.93544922 -3.41195312 0.93544922 -2.046875 0.55078125 C-1.37140625 0.36902344 -0.6959375 0.18726563 0 0 Z " fill="#7F7372" transform="translate(216,152)"/>
<path d="M0 0 C4.12751449 0.60698743 7.3321148 2.03810791 11 4 C10.67 4.99 10.34 5.98 10 7 C10 6.34 10 5.68 10 5 C8.9171875 4.814375 8.9171875 4.814375 7.8125 4.625 C5.04278106 4.0095069 2.6029646 3.11555626 0 2 C0 1.34 0 0.68 0 0 Z " fill="#866E6E" transform="translate(232,152)"/>
<path d="M0 0 C0.66 0.33 1.32 0.66 2 1 C-0.28097125 4.42145688 -1.1935507 4.78885704 -5 6 C-6.9924325 6.37593066 -8.9918674 6.71979545 -11 7 C-7.54143152 4.05004453 -4.19978515 1.77324262 0 0 Z " fill="#7B7070" transform="translate(200,158)"/>
<path d="M0 0 C3.0927781 2.06185207 3.68076198 2.90369802 5.1875 6.125 C5.53167969 6.84945313 5.87585938 7.57390625 6.23046875 8.3203125 C6.61138672 9.15175781 6.61138672 9.15175781 7 10 C6.01 10 5.02 10 4 10 C0 3.375 0 3.375 0 0 Z " fill="#827876" transform="translate(273,298)"/>
<path d="M0 0 C0 3 0 3 0 3 Z M-4 2 C-2.68 2.66 -1.36 3.32 0 4 C-1.98 6.97 -1.98 6.97 -4 10 C-4.66 9.67 -5.32 9.34 -6 9 C-5.34 6.69 -4.68 4.38 -4 2 Z " fill="#877977" transform="translate(286,236)"/>
<path d="M0 0 C1.485 0.99 1.485 0.99 3 2 C5.06910593 2.02749478 5.06910593 2.02749478 7.1875 1.625 C9.0746875 1.315625 9.0746875 1.315625 11 1 C11 1.66 11 2.32 11 3 C7.76746204 5.15502531 6.74849077 5.46856135 3 5 C1.1875 3.625 1.1875 3.625 0 2 C0 1.34 0 0.68 0 0 Z " fill="#7E7473" transform="translate(185,293)"/>
<path d="M0 0 C-1.2065625 0.4021875 -1.2065625 0.4021875 -2.4375 0.8125 C-3.283125 1.204375 -4.12875 1.59625 -5 2 C-5.33 2.99 -5.66 3.98 -6 5 C-7.32 4.34 -8.64 3.68 -10 3 C-8.68 2.67 -7.36 2.34 -6 2 C-6 1.34 -6 0.68 -6 0 C-3.50907189 -1.24546405 -2.58919267 -0.7767578 0 0 Z " fill="#706666" transform="translate(186,185)"/>
<path d="M0 0 C0.66 0.33 1.32 0.66 2 1 C1.01 2.485 1.01 2.485 0 4 C-0.66 4 -1.32 4 -2 4 C-2.268125 4.639375 -2.53625 5.27875 -2.8125 5.9375 C-4 8 -4 8 -7 9 C-5.44499019 5.18315774 -2.96404505 2.80804268 0 0 Z " fill="#7B7070" transform="translate(210,209)"/>
<path d="M0 0 C0.66 0.33 1.32 0.66 2 1 C-0.31 3.97 -2.62 6.94 -5 10 C-5.33 9.01 -5.66 8.02 -6 7 C-4.78515625 5.17578125 -4.78515625 5.17578125 -3.0625 3.3125 C-2.49660156 2.68988281 -1.93070313 2.06726563 -1.34765625 1.42578125 C-0.90292969 0.95527344 -0.45820313 0.48476562 0 0 Z " fill="#807373" transform="translate(208,233)"/>
<path d="M0 0 C0.66 0.33 1.32 0.66 2 1 C-0.23407889 4.35111834 -1.26215824 5.81553956 -5.25 6.8125 C-6.61125 6.9053125 -6.61125 6.9053125 -8 7 C-5.4837822 4.39391727 -2.94865641 2.10618315 0 0 Z " fill="#786E6E" transform="translate(264,168)"/>
<path d="M0 0 C0.66 0.66 1.32 1.32 2 2 C1.01 4.64 0.02 7.28 -1 10 C-2.06546953 6.8035914 -2.07427838 4.34252724 -2 1 C-1.34 0.67 -0.68 0.34 0 0 Z " fill="#877A7A" transform="translate(253,225)"/>
<path d="M0 0 C0.66 0.33 1.32 0.66 2 1 C0.9024777 3.99324263 0.32317108 4.84610901 -2.625 6.25 C-3.40875 6.4975 -4.1925 6.745 -5 7 C-3.70700306 4.11562221 -2.34058637 2.12780579 0 0 Z " fill="#8A7574" transform="translate(179,171)"/>
<path d="" fill="#FFFFFF" transform="translate(0,0)"/>
<path d="" fill="#FFFFFF" transform="translate(0,0)"/>
<path d="" fill="#FFFFFF" transform="translate(0,0)"/>
<path d="" fill="#FFFFFF" transform="translate(0,0)"/>
<path d="" fill="#FFFFFF" transform="translate(0,0)"/>
<path d="" fill="#FFFFFF" transform="translate(0,0)"/>
<path d="" fill="#FFFFFF" transform="translate(0,0)"/>
<path d="" fill="#FFFFFF" transform="translate(0,0)"/>
<path d="" fill="#FFFFFF" transform="translate(0,0)"/>
<path d="" fill="#FFFFFF" transform="translate(0,0)"/>
<path d="" fill="#FFFFFF" transform="translate(0,0)"/>
<path d="" fill="#FFFFFF" transform="translate(0,0)"/>
<path d="" fill="#FFFFFF" transform="translate(0,0)"/>
<path d="" fill="#FFFFFF" transform="translate(0,0)"/>
<path d="" fill="#FFFFFF" transform="translate(0,0)"/>
<path d="" fill="#FFFFFF" transform="translate(0,0)"/>
<path d="" fill="#FFFFFF" transform="translate(0,0)"/>
<path d="" fill="#FFFFFF" transform="translate(0,0)"/>
<path d="" fill="#FFFFFF" transform="translate(0,0)"/>
<path d="" fill="#FFFFFF" transform="translate(0,0)"/>
<path d="" fill="#FFFFFF" transform="translate(0,0)"/>
<path d="" fill="#FFFFFF" transform="translate(0,0)"/>
<path d="" fill="#FFFFFF" transform="translate(0,0)"/>
<path d="" fill="#FFFFFF" transform="translate(0,0)"/>
<path d="" fill="#FFFFFF" transform="translate(0,0)"/>
<path d="" fill="#FFFFFF" transform="translate(0,0)"/>
<path d="" fill="#FFFFFF" transform="translate(0,0)"/>
<path d="" fill="#FFFFFF" transform="translate(0,0)"/>
<path d="" fill="#FFFFFF" transform="translate(0,0)"/>
<path d="" fill="#FFFFFF" transform="translate(0,0)"/>
<path d="" fill="#FFFFFF" transform="translate(0,0)"/>
<path d="" fill="#FFFFFF" transform="translate(0,0)"/>
<path d="" fill="#FFFFFF" transform="translate(0,0)"/>
<path d="" fill="#FFFFFF" transform="translate(0,0)"/>
<path d="" fill="#FFFFFF" transform="translate(0,0)"/>
<path d="" fill="#FFFFFF" transform="translate(0,0)"/>
<path d="" fill="#FFFFFF" transform="translate(0,0)"/>
<path d="" fill="#FFFFFF" transform="translate(0,0)"/>
<path d="" fill="#FFFFFF" transform="translate(0,0)"/>
<path d="" fill="#FFFFFF" transform="translate(0,0)"/>
<path d="" fill="#FFFFFF" transform="translate(0,0)"/>
<path d="" fill="#FFFFFF" transform="translate(0,0)"/>
<path d="" fill="#FFFFFF" transform="translate(0,0)"/>
<path d="" fill="#FFFFFF" transform="translate(0,0)"/>
<path d="" fill="#FFFFFF" transform="translate(0,0)"/>
<path d="" fill="#FFFFFF" transform="translate(0,0)"/>
<path d="" fill="#FFFFFF" transform="translate(0,0)"/>
<path d="" fill="#FFFFFF" transform="translate(0,0)"/>
<path d="" fill="#FFFFFF" transform="translate(0,0)"/>
<path d="" fill="#FFFFFF" transform="translate(0,0)"/>
<path d="" fill="#FFFFFF" transform="translate(0,0)"/>
<path d="" fill="#FFFFFF" transform="translate(0,0)"/>
<path d="" fill="#FFFFFF" transform="translate(0,0)"/>
<path d="" fill="#FFFFFF" transform="translate(0,0)"/>
<path d="" fill="#FFFFFF" transform="translate(0,0)"/>
<path d="" fill="#FFFFFF" transform="translate(0,0)"/>
<path d="" fill="#FFFFFF" transform="translate(0,0)"/>
<path d="" fill="#FFFFFF" transform="translate(0,0)"/>
<path d="" fill="#FFFFFF" transform="translate(0,0)"/>
<path d="" fill="#FFFFFF" transform="translate(0,0)"/>
<path d="" fill="#FFFFFF" transform="translate(0,0)"/>
<path d="" fill="#FFFFFF" transform="translate(0,0)"/>
<path d="" fill="#FFFFFF" transform="translate(0,0)"/>
<path d="" fill="#FFFFFF" transform="translate(0,0)"/>
<path d="" fill="#FFFFFF" transform="translate(0,0)"/>
<path d="" fill="#FFFFFF" transform="translate(0,0)"/>
<path d="" fill="#FFFFFF" transform="translate(0,0)"/>
<path d="" fill="#FFFFFF" transform="translate(0,0)"/>
<path d="" fill="#FFFFFF" transform="translate(0,0)"/>
<path d="" fill="#FFFFFF" transform="translate(0,0)"/>
<path d="" fill="#FFFFFF" transform="translate(0,0)"/>
<path d="" fill="#FFFFFF" transform="translate(0,0)"/>
<path d="" fill="#FFFFFF" transform="translate(0,0)"/>
<path d="" fill="#FFFFFF" transform="translate(0,0)"/>
<path d="" fill="#FFFFFF" transform="translate(0,0)"/>
</svg>
